<svg width="24" height="25" viewBox="0 0 24 25" fill="none" xmlns="http://www.w3.org/2000/svg">
<path d="M18.7099 7.7101C18.617 7.61638 18.5064 7.54198 18.3845 7.49121C18.2627 7.44044 18.132 7.41431 17.9999 7.41431C17.8679 7.41431 17.7372 7.44044 17.6154 7.49121C17.4935 7.54198 17.3829 7.61638 17.29 7.7101L9.83995 15.1701L6.70995 12.0301C6.61343 11.9369 6.49949 11.8636 6.37463 11.8143C6.24978 11.7651 6.11645 11.741 5.98227 11.7433C5.84809 11.7457 5.71568 11.7744 5.5926 11.8279C5.46953 11.8814 5.35819 11.9586 5.26495 12.0551C5.17171 12.1516 5.0984 12.2656 5.04919 12.3904C4.99999 12.5153 4.97586 12.6486 4.97818 12.7828C4.9805 12.917 5.00923 13.0494 5.06272 13.1725C5.11622 13.2955 5.19343 13.4069 5.28995 13.5001L9.12995 17.3401C9.22291 17.4338 9.33351 17.5082 9.45537 17.559C9.57723 17.6098 9.70794 17.6359 9.83995 17.6359C9.97196 17.6359 10.1027 17.6098 10.2245 17.559C10.3464 17.5082 10.457 17.4338 10.55 17.3401L18.7099 9.18011C18.8115 9.08646 18.8925 8.97281 18.9479 8.84631C19.0033 8.71981 19.0319 8.58321 19.0319 8.44511C19.0319 8.307 19.0033 8.1704 18.9479 8.0439C18.8925 7.9174 18.8115 7.80375 18.7099 7.7101Z" fill="white"/>
</svg>
